<svg width="111" height="46" viewBox="0 0 111 46" fill="none" xmlns="http://www.w3.org/2000/svg">
<g clip-path="url(#clip0_1_16)">
<path d="M106.724 29.9819V30.5412H105.91V32.4838H105.3V30.5412H104.486V29.9819H106.724Z" fill="#007ACC"/>
<path d="M109.165 32.4838V30.5819L108.656 32.4838H108.148L107.537 30.5819V32.4838H106.927V29.9819H107.944L108.351 31.6498L108.758 29.9819H109.775V32.4838H109.165Z" fill="#007ACC"/>
<path d="M81.2236 32.3414C80.3122 32.7279 79.4007 32.9211 78.4791 32.9211C77.0208 32.9211 75.7043 32.6668 74.5396 32.1583C73.375 31.6498 72.3927 30.9481 71.5926 30.0531C70.7925 29.1581 70.1748 28.1106 69.7494 26.9003C69.3241 25.6901 69.1114 24.3883 69.1114 22.9949C69.1114 21.5609 69.3241 20.2388 69.7494 19.0082C70.1748 17.7776 70.7824 16.7097 71.5825 15.8046C72.3825 14.8893 73.3649 14.1773 74.5295 13.6587C75.6941 13.14 77.0006 12.8755 78.469 12.8755C79.4514 12.8755 80.3932 13.0281 81.3047 13.323C82.2161 13.618 83.0465 14.0553 83.7858 14.6248C84.5251 15.1944 85.1328 15.9063 85.6087 16.7504C86.0847 17.5945 86.3784 18.5607 86.4898 19.6489H82.4997C82.2465 18.5811 81.7705 17.7776 81.0616 17.2386C80.3527 16.6996 79.4919 16.4351 78.469 16.4351C77.5272 16.4351 76.7271 16.6182 76.0689 16.9843C75.4106 17.3505 74.8738 17.8386 74.4687 18.459C74.0637 19.0794 73.7598 19.7811 73.5775 20.5643C73.3953 21.3474 73.294 22.161 73.294 23.0051C73.294 23.8086 73.3851 24.5917 73.5775 25.3544C73.7598 26.1172 74.0637 26.7986 74.4687 27.4088C74.8738 28.019 75.4106 28.5072 76.0689 28.8733C76.7271 29.2395 77.5272 29.4225 78.469 29.4225C79.8565 29.4225 80.9299 29.0666 81.6895 28.3648C82.449 27.6631 82.8845 26.6461 83.0162 25.3036H78.8032V22.1406H86.7936V32.4838H84.1302L83.7048 30.3175C82.9655 31.2837 82.1351 31.9549 81.2236 32.3414Z" fill="#007ACC"/>
<path d="M93.589 13.3535V28.9242H102.876V32.4736H89.4065V13.3535H93.589Z" fill="#007ACC"/>
<path d="M73.8206 34.8534C67.4303 38.7588 57.8499 40.9759 47.1656 40.9759C27.9137 40.9759 12.3177 32.9312 12.3177 22.9949C12.3177 13.0688 27.9238 5.01393 47.1656 5.01393C57.8904 5.01393 67.5012 7.28189 73.8915 11.2076C66.9239 4.62746 54.4066 0.0101702 40.1069 0C18.1915 0 0.428284 10.2923 0.428284 22.9949C0.428284 35.6975 18.1915 46 40.0968 46C54.3459 46 66.8227 41.3929 73.8206 34.8534Z" fill="#007ACC"/>
<path d="M22.4655 27.8258L18.7738 11.8585H15.2855L20.7569 32.677H24.0317L28.6387 16.3233L33.1847 32.677H36.4696L42.1342 11.8585H38.4425L34.7508 27.8258L30.2964 11.8585H26.9199L22.4655 27.8258Z" fill="#007ACC"/>
<path d="M51.3482 20.6253C50.8397 19.9032 50.199 19.354 49.4465 18.9777C48.6735 18.5912 47.7786 18.398 46.7819 18.398C45.6632 18.398 44.6564 18.6014 43.7818 18.9981C42.958 19.3744 42.2563 19.9337 41.6868 20.6558C40.6393 21.9881 40.0901 23.8696 40.0901 26.0969C40.0901 27.0834 40.2325 28.0191 40.507 28.853C40.7816 29.6971 41.1986 30.4396 41.7274 31.06C42.8461 32.3618 44.4428 33.0533 46.3446 33.0533C47.3413 33.0533 48.1549 32.9516 48.8363 32.7381C49.4261 32.555 49.8227 32.3109 50.1482 32.0973C50.5652 31.8227 50.9414 31.4871 51.2872 31.1006C51.572 30.765 51.8262 30.3989 52.05 30.0023C52.4364 29.2903 52.6297 28.6191 52.6703 28.2733L52.7009 28.0394H49.9855L49.9753 28.2326C49.9041 29.1174 48.7447 30.6938 46.6802 30.6938C43.7309 30.6938 43.0292 28.5581 42.9784 26.6766H52.8636V26.463C52.8636 25.2528 52.7415 24.1442 52.4975 23.178C52.2229 22.1712 51.8466 21.3169 51.3482 20.6253ZM46.4667 20.8389C48.6532 20.8389 49.8227 22.0186 50.0363 24.4391H42.958C43.0699 22.4763 44.6259 20.8389 46.4667 20.8389Z" fill="#007ACC"/>
<path d="M66.5219 22.6186C66.2574 21.7745 65.871 21.0321 65.3727 20.4117C64.854 19.771 64.2234 19.2726 63.5014 18.9268C62.7488 18.5709 61.9047 18.3878 60.9894 18.3878C60.1453 18.398 59.3825 18.581 58.7113 18.937C58.152 19.2218 57.6536 19.6286 57.2265 20.1371V13.7502H54.5213V32.6668H57.0943V31.3752C57.318 31.6701 57.613 31.9854 57.9994 32.26C58.7317 32.7889 59.6368 33.0533 60.6843 33.0533C61.8132 33.0533 62.8302 32.799 63.6844 32.3007C64.4472 31.8532 65.0981 31.2125 65.6066 30.3989C66.054 29.687 66.3897 28.8428 66.6134 27.897C66.8066 27.0834 66.9083 26.1884 66.9083 25.3137C66.9185 24.3679 66.7863 23.4526 66.5219 22.6186ZM64.0912 25.69C64.0912 27.1749 63.7963 28.4157 63.2268 29.2903C62.6268 30.2158 61.7521 30.6836 60.6334 30.6836C59.0164 30.6836 57.1248 29.5547 57.1248 26.3613C57.1248 24.8357 57.318 23.656 57.7045 22.761C58.2638 21.4694 59.2096 20.849 60.5826 20.849C62.0471 20.849 63.0336 21.4185 63.5827 22.6085C64.0302 23.5848 64.0912 24.7747 64.0912 25.69Z" fill="#007ACC"/>
</g>
<defs>
<clipPath id="clip0_1_16">
<rect width="110.039" height="46" fill="white"/>
</clipPath>
</defs>
</svg>
